<svg width="512" height="512" viewBox="0 0 512 512" fill="none" xmlns="http://www.w3.org/2000/svg">
  <rect width="512" height="512" rx="128" fill="#0f172a"/>
  <path d="M360 196C360 160.654 331.346 132 296 132H180C162.327 132 148 146.327 148 164C148 181.673 162.327 196 180 196H320C326.627 196 332 201.373 332 208V244C332 250.627 337.373 256 344 256H364C381.673 256 396 241.673 396 224V196C396 196 360 196 360 196ZM152 316C152 351.346 180.654 380 216 380H332C349.673 380 364 365.673 364 348C364 330.327 349.673 316 332 316H192C185.373 316 180 310.627 180 304V268C180 261.373 174.627 256 168 256H148C130.327 256 116 270.327 116 288V316C116 316 152 316 152 316Z" fill="url(#paint0_linear)"/>
  <defs>
    <linearGradient id="paint0_linear" x1="116" y1="132" x2="396" y2="380" gradientUnits="userSpaceOnUse">
      <stop stop-color="#38bdf8"/>
      <stop offset="1" stop-color="#818cf8"/>
    </linearGradient>
  </defs>
</svg>
